{
    "asset": {
        "version": "2.0",
        "generator": "This 3D model is generated by KIRI Engine App"
    },
    "extensionsUsed": [
        "KHR_materials_pbrSpecularGlossiness",
        "FB_ngon_encoding"
    ],
    "accessors": [
        {
            "bufferView": 0,
            "byteOffset": 0,
            "componentType": 5126,
            "count": 10876,
            "type": "VEC3",
            "max": [
                2.7331809997558595,
                3.265778064727783,
                2.8968310356140138
            ],
            "min": [
                -3.0653510093688967,
                -3.3350069522857668,
                -2.9492621421813967
            ]
        },
        {
            "bufferView": 1,
            "byteOffset": 0,
            "componentType": 5126,
            "count": 10876,
            "type": "VEC3",
            "max": [
                0.9994262456893921,
                0.9999966621398926,
                0.9998576641082764
            ],
            "min": [
                -1.0,
                -0.9999977350234985,
                -1.0
            ]
        },
        {
            "bufferView": 2,
            "byteOffset": 0,
            "componentType": 5126,
            "count": 10876,
            "type": "VEC2",
            "max": [
                0.9999920129776001,
                1.0
            ],
            "min": [
                0.0,
                0.033827006816864017
            ]
        },
        {
            "bufferView": 3,
            "byteOffset": 0,
            "componentType": 5125,
            "count": 30129,
            "type": "SCALAR",
            "max": [
                10875
            ],
            "min": [
                0
            ]
        }
    ],
    "buffers": [
        {
            "byteLength": 468548,
            "uri": "3DModel_LowPoly.bin"
        }
    ],
    "bufferViews": [
        {
            "buffer": 0,
            "byteOffset": 0,
            "byteLength": 130512,
            "target": 34962
        },
        {
            "buffer": 0,
            "byteOffset": 130512,
            "byteLength": 130512,
            "target": 34962
        },
        {
            "buffer": 0,
            "byteOffset": 261024,
            "byteLength": 87008,
            "target": 34962
        },
        {
            "buffer": 0,
            "byteOffset": 348032,
            "byteLength": 120516,
            "target": 34963
        }
    ],
    "images": [
        {
            "uri": "data:image/jpeg;base64,"
        }
    ],
    "materials": [
        {
            "name": "3DModel_LowPoly",
            "pbrMetallicRoughness": {
                "baseColorTexture": {
                    "index": 0
                },
                "baseColorFactor": [
                    0.6000000238418579,
                    0.6000000238418579,
                    0.6000000238418579,
                    1.0
                ],
                "metallicFactor": 0.0
            },
            "extensions": {
                "KHR_materials_pbrSpecularGlossiness": {
                    "diffuseFactor": [
                        0.6000000238418579,
                        0.6000000238418579,
                        0.6000000238418579,
                        1.0
                    ],
                    "specularFactor": [
                        0.0,
                        0.0,
                        0.0
                    ],
                    "glossinessFactor": 0.0,
                    "diffuseTexture": {
                        "index": 0
                    }
                }
            }
        }
    ],
    "meshes": [
        {
            "name": "3DModel_LowPoly",
            "primitives": [
                {
                    "mode": 4,
                    "material": 0,
                    "indices": 3,
                    "attributes": {
                        "POSITION": 0,
                        "NORMAL": 1,
                        "TEXCOORD_0": 2
                    }
                }
            ]
        }
    ],
    "nodes": [
        {
            "name": "3DModel_LowPoly.obj",
            "children": [
                1
            ]
        },
        {
            "name": "3DModel_LowPoly",
            "mesh": 0
        }
    ],
    "samplers": [
        {}
    ],
    "scenes": [
        {
            "nodes": [
                0
            ]
        }
    ],
    "textures": [
        {
            "source": 0,
            "sampler": 0
        }
    ],
    "scene": 0
}