{
	"asset":{
		"generator":"Khronos glTF Blender I/O v4.3.47",
		"version":"2.0"
	},
	"extensionsUsed":[
		"KHR_materials_specular",
		"KHR_materials_ior"
	],
	"scene":0,
	"scenes":[
		{
			"name":"Scene",
			"nodes":[
				1
			]
		}
	],
	"nodes":[
		{
			"mesh":0,
			"name":"3DModel",
			"scale":[
				0.5362011790275574,
				0.5362011790275574,
				0.5362011790275574
			],
			"translation":[
				0,
				0.3873766362667084,
				0
			]
		},
		{
			"children":[
				0
			],
			"name":"3DModel.obj.001"
		}
	],
	"materials":[
		{
			"extensions":{
				"KHR_materials_specular":{
					"specularColorFactor":[
						0.0,
						0.0,
						0.0
					]
				},
				"KHR_materials_ior":{
					"ior":1000
				}
			},
			"name":"3DModel.001",
			"pbrMetallicRoughness":{
				"baseColorFactor":[
					0.6000000238418579,
					0.6000000238418579,
					0.6000000238418579,
					1
				],
				"baseColorTexture":{
					"index":0
				},
				"metallicFactor":0
			}
		}
	],
	"meshes":[
		{
			"name":"3DModel",
			"primitives":[
				{
					"attributes":{
						"POSITION":0,
						"NORMAL":1,
						"TEXCOORD_0":2
					},
					"indices":3,
					"material":0
				}
			]
		}
	],
	"textures":[
		{
			"sampler":0,
			"source":0
		}
	],
	"images":[
		{
			"mimeType":"image/jpeg",
			"name":"Image_0",
			"uri":"Image_0.jpg"
		}
	],
	"accessors":[
		{
			"bufferView":0,
			"componentType":5126,
			"count":569502,
			"max":[
				2.7331809997558594,
				3.269798994064331,
				2.8968310356140137
			],
			"min":[
				-3.0653510093688965,
				-3.3350958824157715,
				-2.949193000793457
			],
			"type":"VEC3"
		},
		{
			"bufferView":1,
			"componentType":5126,
			"count":569502,
			"type":"VEC3"
		},
		{
			"bufferView":2,
			"componentType":5126,
			"count":569502,
			"type":"VEC2"
		},
		{
			"bufferView":3,
			"componentType":5125,
			"count":1442526,
			"type":"SCALAR"
		}
	],
	"bufferViews":[
		{
			"buffer":0,
			"byteLength":6834024,
			"byteOffset":0,
			"target":34962
		},
		{
			"buffer":0,
			"byteLength":6834024,
			"byteOffset":6834024,
			"target":34962
		},
		{
			"buffer":0,
			"byteLength":4556016,
			"byteOffset":13668048,
			"target":34962
		},
		{
			"buffer":0,
			"byteLength":5770104,
			"byteOffset":18224064,
			"target":34963
		}
	],
	"samplers":[
		{
			"magFilter":9729,
			"minFilter":9987
		}
	],
	"buffers":[
		{
			"byteLength":23994168,
			"uri":"srmatte.bin"
		}
	]
}
