{
    "asset": {
        "version": "2.0",
        "generator": "This 3D model is generated by KIRI Engine App"
    },
    "extensionsUsed": [
        "KHR_materials_pbrSpecularGlossiness",
        "FB_ngon_encoding"
    ],
    "accessors": [
        {
            "bufferView": 0,
            "byteOffset": 0,
            "componentType": 5126,
            "count": 8063,
            "type": "VEC3",
            "max": [
                1.7991349697113038,
                1.375195026397705,
                1.4703559875488282
            ],
            "min": [
                -1.912253975868225,
                -1.501676082611084,
                -1.602247953414917
            ]
        },
        {
            "bufferView": 1,
            "byteOffset": 0,
            "componentType": 5126,
            "count": 8063,
            "type": "VEC3",
            "max": [
                0.9287987947463989,
                0.9782368540763855,
                0.9975559115409851
            ],
            "min": [
                -0.9993257522583008,
                -0.9769013524055481,
                -0.8841421008110046
            ]
        },
        {
            "bufferView": 2,
            "byteOffset": 0,
            "componentType": 5126,
            "count": 8063,
            "type": "VEC2",
            "max": [
                0.9980599880218506,
                0.9993709921836853
            ],
            "min": [
                0.0006290000164881349,
                0.0006290078163146973
            ]
        },
        {
            "bufferView": 3,
            "byteOffset": 0,
            "componentType": 5125,
            "count": 17253,
            "type": "SCALAR",
            "max": [
                8062
            ],
            "min": [
                0
            ]
        }
    ],
    "buffers": [
        {
            "byteLength": 327028,
            "uri": "3DModel_LowPoly.bin"
        }
    ],
    "bufferViews": [
        {
            "buffer": 0,
            "byteOffset": 0,
            "byteLength": 96756,
            "target": 34962
        },
        {
            "buffer": 0,
            "byteOffset": 96756,
            "byteLength": 96756,
            "target": 34962
        },
        {
            "buffer": 0,
            "byteOffset": 193512,
            "byteLength": 64504,
            "target": 34962
        },
        {
            "buffer": 0,
            "byteOffset": 258016,
            "byteLength": 69012,
            "target": 34963
        }
    ],
    "images": [
        {
            "uri": "data:image/jpeg;base64,"
        }
    ],
    "materials": [
        {
            "name": "3DModel_LowPoly",
            "pbrMetallicRoughness": {
                "baseColorTexture": {
                    "index": 0
                },
                "baseColorFactor": [
                    0.6000000238418579,
                    0.6000000238418579,
                    0.6000000238418579,
                    1.0
                ],
                "metallicFactor": 0.0
            },
            "extensions": {
                "KHR_materials_pbrSpecularGlossiness": {
                    "diffuseFactor": [
                        0.6000000238418579,
                        0.6000000238418579,
                        0.6000000238418579,
                        1.0
                    ],
                    "specularFactor": [
                        0.0,
                        0.0,
                        0.0
                    ],
                    "glossinessFactor": 0.0,
                    "diffuseTexture": {
                        "index": 0
                    }
                }
            }
        }
    ],
    "meshes": [
        {
            "name": "3DModel_LowPoly",
            "primitives": [
                {
                    "mode": 4,
                    "material": 0,
                    "indices": 3,
                    "attributes": {
                        "POSITION": 0,
                        "NORMAL": 1,
                        "TEXCOORD_0": 2
                    }
                }
            ]
        }
    ],
    "nodes": [
        {
            "name": "3DModel_LowPoly.obj",
            "children": [
                1
            ]
        },
        {
            "name": "3DModel_LowPoly",
            "mesh": 0
        }
    ],
    "samplers": [
        {}
    ],
    "scenes": [
        {
            "nodes": [
                0
            ]
        }
    ],
    "textures": [
        {
            "source": 0,
            "sampler": 0
        }
    ],
    "scene": 0
}