{
	"asset":{
		"generator":"Khronos glTF Blender I/O v4.3.47",
		"version":"2.0"
	},
	"extensionsUsed":[
		"KHR_materials_specular",
		"KHR_materials_ior"
	],
	"scene":0,
	"scenes":[
		{
			"name":"Scene",
			"nodes":[
				1
			]
		}
	],
	"nodes":[
		{
			"mesh":0,
			"name":"3DModel"
		},
		{
			"children":[
				0
			],
			"name":"3DModel.obj",
			"rotation":[
				-0.2001512050628662,
				-0.1518210619688034,
				-0.5849607586860657,
				0.7711749076843262
			],
			"translation":[
				0,
				0.8398630023002625,
				0
			]
		}
	],
	"materials":[
		{
			"extensions":{
				"KHR_materials_specular":{
					"specularColorFactor":[
						0.0,
						0.0,
						0.0
					]
				},
				"KHR_materials_ior":{
					"ior":1000
				}
			},
			"name":"3DModel",
			"pbrMetallicRoughness":{
				"baseColorFactor":[
					0.6000000238418579,
					0.6000000238418579,
					0.6000000238418579,
					1
				],
				"baseColorTexture":{
					"index":0
				},
				"metallicFactor":0
			}
		}
	],
	"meshes":[
		{
			"name":"3DModel",
			"primitives":[
				{
					"attributes":{
						"POSITION":0,
						"NORMAL":1,
						"TEXCOORD_0":2
					},
					"indices":3,
					"material":0
				}
			]
		}
	],
	"textures":[
		{
			"sampler":0,
			"source":0
		}
	],
	"images":[
		{
			"mimeType":"image/jpeg",
			"name":"Image_0",
			"uri":"Image_0.jpg"
		}
	],
	"accessors":[
		{
			"bufferView":0,
			"componentType":5126,
			"count":647021,
			"max":[
				1.799219012260437,
				1.3757840394973755,
				1.4725699424743652
			],
			"min":[
				-1.9124140739440918,
				-1.5030450820922852,
				-1.6022080183029175
			],
			"type":"VEC3"
		},
		{
			"bufferView":1,
			"componentType":5126,
			"count":647021,
			"type":"VEC3"
		},
		{
			"bufferView":2,
			"componentType":5126,
			"count":647021,
			"type":"VEC2"
		},
		{
			"bufferView":3,
			"componentType":5125,
			"count":1316271,
			"type":"SCALAR"
		}
	],
	"bufferViews":[
		{
			"buffer":0,
			"byteLength":7764252,
			"byteOffset":0,
			"target":34962
		},
		{
			"buffer":0,
			"byteLength":7764252,
			"byteOffset":7764252,
			"target":34962
		},
		{
			"buffer":0,
			"byteLength":5176168,
			"byteOffset":15528504,
			"target":34962
		},
		{
			"buffer":0,
			"byteLength":5265084,
			"byteOffset":20704672,
			"target":34963
		}
	],
	"samplers":[
		{
			"magFilter":9729,
			"minFilter":9987
		}
	],
	"buffers":[
		{
			"byteLength":25969756,
			"uri":"gallagherHS.bin"
		}
	]
}
