{
    "asset": {
        "version": "2.0",
        "generator": "This 3D model is generated by KIRI Engine App"
    },
    "extensionsUsed": [
        "KHR_materials_pbrSpecularGlossiness",
        "FB_ngon_encoding"
    ],
    "accessors": [
        {
            "bufferView": 0,
            "byteOffset": 0,
            "componentType": 5126,
            "count": 8405,
            "type": "VEC3",
            "max": [
                2.1771130561828615,
                1.5513970851898194,
                1.5006250143051148
            ],
            "min": [
                -1.3893359899520875,
                -1.1603929996490479,
                -1.81256902217865
            ]
        },
        {
            "bufferView": 1,
            "byteOffset": 0,
            "componentType": 5126,
            "count": 8405,
            "type": "VEC3",
            "max": [
                0.998467743396759,
                0.9997963309288025,
                0.9996952414512634
            ],
            "min": [
                -0.9998325109481812,
                -0.9998915195465088,
                -0.999313235282898
            ]
        },
        {
            "bufferView": 2,
            "byteOffset": 0,
            "componentType": 5126,
            "count": 8405,
            "type": "VEC2",
            "max": [
                0.9999780058860779,
                1.0
            ],
            "min": [
                0.0002880000101868063,
                0.0011820197105407715
            ]
        },
        {
            "bufferView": 3,
            "byteOffset": 0,
            "componentType": 5125,
            "count": 44997,
            "type": "SCALAR",
            "max": [
                8404
            ],
            "min": [
                0
            ]
        }
    ],
    "buffers": [
        {
            "byteLength": 448948,
            "uri": "3DModel_LowPoly.bin"
        }
    ],
    "bufferViews": [
        {
            "buffer": 0,
            "byteOffset": 0,
            "byteLength": 100860,
            "target": 34962
        },
        {
            "buffer": 0,
            "byteOffset": 100860,
            "byteLength": 100860,
            "target": 34962
        },
        {
            "buffer": 0,
            "byteOffset": 201720,
            "byteLength": 67240,
            "target": 34962
        },
        {
            "buffer": 0,
            "byteOffset": 268960,
            "byteLength": 179988,
            "target": 34963
        }
    ],
    "images": [
        {
            "uri": "data:image/jpeg;base64,"
        }
    ],
    "materials": [
        {
            "name": "Solid",
            "pbrMetallicRoughness": {
                "metallicFactor": 0.0
            },
            "extensions": {
                "KHR_materials_pbrSpecularGlossiness": {
                    "specularFactor": [
                        0.0,
                        0.0,
                        0.0
                    ],
                    "glossinessFactor": 0.0
                }
            }
        },
        {
            "name": "3DModel_LowPoly",
            "pbrMetallicRoughness": {
                "baseColorTexture": {
                    "index": 0
                },
                "metallicFactor": 0.0
            },
            "extensions": {
                "KHR_materials_pbrSpecularGlossiness": {
                    "specularFactor": [
                        0.0,
                        0.0,
                        0.0
                    ],
                    "glossinessFactor": 0.0,
                    "diffuseTexture": {
                        "index": 0
                    }
                }
            }
        }
    ],
    "meshes": [
        {
            "name": "defaultobject",
            "primitives": [
                {
                    "mode": 4,
                    "material": 1,
                    "indices": 3,
                    "attributes": {
                        "POSITION": 0,
                        "NORMAL": 1,
                        "TEXCOORD_0": 2
                    }
                }
            ]
        }
    ],
    "nodes": [
        {
            "name": "3DModel_LowPoly.obj",
            "children": [
                1
            ]
        },
        {
            "name": "defaultobject",
            "mesh": 0
        }
    ],
    "samplers": [
        {}
    ],
    "scenes": [
        {
            "nodes": [
                0
            ]
        }
    ],
    "textures": [
        {
            "source": 0,
            "sampler": 0
        }
    ],
    "scene": 0
}