{
	"asset":{
		"generator":"Khronos glTF Blender I/O v4.3.47",
		"version":"2.0"
	},
	"extensionsUsed":[
		"KHR_materials_specular",
		"KHR_materials_ior"
	],
	"scene":0,
	"scenes":[
		{
			"name":"Scene",
			"nodes":[
				1
			]
		}
	],
	"nodes":[
		{
			"mesh":0,
			"name":"defaultobject",
			"rotation":[
				0.20689915120601654,
				-0.17156538367271423,
				-0.056705135852098465,
				0.961531400680542
			],
			"translation":[
				0.0905306339263916,
				0.005891772918403149,
				-0.0133595559746027
			]
		},
		{
			"children":[
				0
			],
			"name":"3DModel.obj",
			"rotation":[
				-0.46165773272514343,
				0.3509364724159241,
				-0.5647984743118286,
				0.5871273875236511
			],
			"translation":[
				0,
				0.65593022108078,
				0
			]
		}
	],
	"materials":[
		{
			"extensions":{
				"KHR_materials_specular":{
					"specularColorFactor":[
						0.0,
						0.0,
						0.0
					]
				},
				"KHR_materials_ior":{
					"ior":1000
				}
			},
			"name":"3DModel",
			"pbrMetallicRoughness":{
				"baseColorTexture":{
					"index":0
				},
				"metallicFactor":0
			}
		}
	],
	"meshes":[
		{
			"name":"defaultobject",
			"primitives":[
				{
					"attributes":{
						"POSITION":0,
						"NORMAL":1,
						"TEXCOORD_0":2
					},
					"indices":3,
					"material":0
				}
			]
		}
	],
	"textures":[
		{
			"sampler":0,
			"source":0
		}
	],
	"images":[
		{
			"mimeType":"image/jpeg",
			"name":"Image_0",
			"uri":"Image_0.jpg"
		}
	],
	"accessors":[
		{
			"bufferView":0,
			"componentType":5126,
			"count":95030,
			"max":[
				2.1771130561828613,
				1.5513970851898193,
				1.5020689964294434
			],
			"min":[
				-1.3937280178070068,
				-1.1603929996490479,
				-1.81256902217865
			],
			"type":"VEC3"
		},
		{
			"bufferView":1,
			"componentType":5126,
			"count":95030,
			"type":"VEC3"
		},
		{
			"bufferView":2,
			"componentType":5126,
			"count":95030,
			"type":"VEC2"
		},
		{
			"bufferView":3,
			"componentType":5125,
			"count":545955,
			"type":"SCALAR"
		}
	],
	"bufferViews":[
		{
			"buffer":0,
			"byteLength":1140360,
			"byteOffset":0,
			"target":34962
		},
		{
			"buffer":0,
			"byteLength":1140360,
			"byteOffset":1140360,
			"target":34962
		},
		{
			"buffer":0,
			"byteLength":760240,
			"byteOffset":2280720,
			"target":34962
		},
		{
			"buffer":0,
			"byteLength":2183820,
			"byteOffset":3040960,
			"target":34963
		}
	],
	"samplers":[
		{
			"magFilter":9729,
			"minFilter":9987
		}
	],
	"buffers":[
		{
			"byteLength":5224780,
			"uri":"saltshaker.bin"
		}
	]
}
