{
    "asset": {
        "version": "2.0",
        "generator": "This 3D model is generated by KIRI Engine App"
    },
    "extensionsUsed": [
        "KHR_materials_pbrSpecularGlossiness",
        "FB_ngon_encoding"
    ],
    "accessors": [
        {
            "bufferView": 0,
            "byteOffset": 0,
            "componentType": 5126,
            "count": 8311,
            "type": "VEC3",
            "max": [
                1.7770609855651856,
                1.2621819972991944,
                1.4726109504699708
            ],
            "min": [
                -1.245002031326294,
                -1.7018359899520875,
                -2.1591920852661135
            ]
        },
        {
            "bufferView": 1,
            "byteOffset": 0,
            "componentType": 5126,
            "count": 8311,
            "type": "VEC3",
            "max": [
                0.9981878995895386,
                0.9998854994773865,
                0.9986282587051392
            ],
            "min": [
                -0.9986483454704285,
                -0.9992982149124146,
                -0.9990262389183044
            ]
        },
        {
            "bufferView": 2,
            "byteOffset": 0,
            "componentType": 5126,
            "count": 8311,
            "type": "VEC2",
            "max": [
                0.9690330028533936,
                0.9999439716339111
            ],
            "min": [
                0.0004879999905824661,
                0.0004220008850097656
            ]
        },
        {
            "bufferView": 3,
            "byteOffset": 0,
            "componentType": 5125,
            "count": 44997,
            "type": "SCALAR",
            "max": [
                8310
            ],
            "min": [
                0
            ]
        }
    ],
    "buffers": [
        {
            "byteLength": 445940,
            "uri": "3DModel_LowPoly.bin"
        }
    ],
    "bufferViews": [
        {
            "buffer": 0,
            "byteOffset": 0,
            "byteLength": 99732,
            "target": 34962
        },
        {
            "buffer": 0,
            "byteOffset": 99732,
            "byteLength": 99732,
            "target": 34962
        },
        {
            "buffer": 0,
            "byteOffset": 199464,
            "byteLength": 66488,
            "target": 34962
        },
        {
            "buffer": 0,
            "byteOffset": 265952,
            "byteLength": 179988,
            "target": 34963
        }
    ],
    "images": [
        {
            "uri": "data:image/jpeg;base64,"
        }
    ],
    "materials": [
        {
            "name": "Solid",
            "pbrMetallicRoughness": {
                "metallicFactor": 0.0
            },
            "extensions": {
                "KHR_materials_pbrSpecularGlossiness": {
                    "specularFactor": [
                        0.0,
                        0.0,
                        0.0
                    ],
                    "glossinessFactor": 0.0
                }
            }
        },
        {
            "name": "3DModel_LowPoly",
            "pbrMetallicRoughness": {
                "baseColorTexture": {
                    "index": 0
                },
                "metallicFactor": 0.0
            },
            "extensions": {
                "KHR_materials_pbrSpecularGlossiness": {
                    "specularFactor": [
                        0.0,
                        0.0,
                        0.0
                    ],
                    "glossinessFactor": 0.0,
                    "diffuseTexture": {
                        "index": 0
                    }
                }
            }
        }
    ],
    "meshes": [
        {
            "name": "defaultobject",
            "primitives": [
                {
                    "mode": 4,
                    "material": 1,
                    "indices": 3,
                    "attributes": {
                        "POSITION": 0,
                        "NORMAL": 1,
                        "TEXCOORD_0": 2
                    }
                }
            ]
        }
    ],
    "nodes": [
        {
            "name": "3DModel_LowPoly.obj",
            "children": [
                1
            ]
        },
        {
            "name": "defaultobject",
            "mesh": 0
        }
    ],
    "samplers": [
        {}
    ],
    "scenes": [
        {
            "nodes": [
                0
            ]
        }
    ],
    "textures": [
        {
            "source": 0,
            "sampler": 0
        }
    ],
    "scene": 0
}