{
	"asset":{
		"generator":"Khronos glTF Blender I/O v4.3.47",
		"version":"2.0"
	},
	"extensionsUsed":[
		"KHR_materials_specular",
		"KHR_materials_ior"
	],
	"scene":0,
	"scenes":[
		{
			"name":"Scene",
			"nodes":[
				1
			]
		}
	],
	"nodes":[
		{
			"mesh":0,
			"name":"defaultobject",
			"rotation":[
				0.0007213117787614465,
				-0.03631094843149185,
				0.010735743679106236,
				0.9992825984954834
			],
			"translation":[
				-4.291834831237793,
				0.4455081820487976,
				1.5770512819290161
			]
		},
		{
			"children":[
				0
			],
			"name":"3DModel.obj",
			"rotation":[
				-0.5728899240493774,
				0.45918625593185425,
				-0.35115501284599304,
				0.581063985824585
			],
			"scale":[
				0.38912704586982727,
				0.38912704586982727,
				0.3891270160675049
			]
		}
	],
	"materials":[
		{
			"extensions":{
				"KHR_materials_specular":{
					"specularColorFactor":[
						0.0,
						0.0,
						0.0
					]
				},
				"KHR_materials_ior":{
					"ior":1000
				}
			},
			"name":"3DModel",
			"pbrMetallicRoughness":{
				"baseColorTexture":{
					"index":0
				},
				"metallicFactor":0
			}
		}
	],
	"meshes":[
		{
			"name":"defaultobject",
			"primitives":[
				{
					"attributes":{
						"POSITION":0,
						"NORMAL":1,
						"TEXCOORD_0":2
					},
					"indices":3,
					"material":0
				}
			]
		}
	],
	"textures":[
		{
			"sampler":0,
			"source":0
		}
	],
	"images":[
		{
			"mimeType":"image/jpeg",
			"name":"Image_0",
			"uri":"Image_0.jpg"
		}
	],
	"accessors":[
		{
			"bufferView":0,
			"componentType":5126,
			"count":342370,
			"max":[
				8.954879760742188,
				9.40168285369873,
				5.006265163421631
			],
			"min":[
				-7.553882122039795,
				-9.855188369750977,
				-5.891664028167725
			],
			"type":"VEC3"
		},
		{
			"bufferView":1,
			"componentType":5126,
			"count":342370,
			"type":"VEC3"
		},
		{
			"bufferView":2,
			"componentType":5126,
			"count":342370,
			"type":"VEC2"
		},
		{
			"bufferView":3,
			"componentType":5125,
			"count":1997298,
			"type":"SCALAR"
		}
	],
	"bufferViews":[
		{
			"buffer":0,
			"byteLength":4108440,
			"byteOffset":0,
			"target":34962
		},
		{
			"buffer":0,
			"byteLength":4108440,
			"byteOffset":4108440,
			"target":34962
		},
		{
			"buffer":0,
			"byteLength":2738960,
			"byteOffset":8216880,
			"target":34962
		},
		{
			"buffer":0,
			"byteLength":7989192,
			"byteOffset":10955840,
			"target":34963
		}
	],
	"samplers":[
		{
			"magFilter":9729,
			"minFilter":9987
		}
	],
	"buffers":[
		{
			"byteLength":18945032,
			"uri":"buffalo.bin"
		}
	]
}
