{
	"asset":{
		"generator":"Khronos glTF Blender I/O v4.3.47",
		"version":"2.0"
	},
	"extensionsUsed":[
		"KHR_materials_specular",
		"KHR_materials_ior"
	],
	"scene":0,
	"scenes":[
		{
			"name":"Scene",
			"nodes":[
				1
			]
		}
	],
	"nodes":[
		{
			"mesh":0,
			"name":"defaultobject",
			"rotation":[
				0.18077707290649414,
				-0.5164564251899719,
				-0.5606329441070557,
				0.6215168237686157
			],
			"translation":[
				0,
				0.3915180563926697,
				0
			]
		},
		{
			"children":[
				0
			],
			"name":"3DModel.obj"
		}
	],
	"materials":[
		{
			"extensions":{
				"KHR_materials_specular":{
					"specularColorFactor":[
						0.0,
						0.0,
						0.0
					]
				},
				"KHR_materials_ior":{
					"ior":1000
				}
			},
			"name":"3DModel",
			"pbrMetallicRoughness":{
				"baseColorTexture":{
					"index":0
				},
				"metallicFactor":0
			}
		}
	],
	"meshes":[
		{
			"name":"defaultobject",
			"primitives":[
				{
					"attributes":{
						"POSITION":0,
						"NORMAL":1,
						"TEXCOORD_0":2
					},
					"indices":3,
					"material":0
				}
			]
		}
	],
	"textures":[
		{
			"sampler":0,
			"source":0
		}
	],
	"images":[
		{
			"mimeType":"image/jpeg",
			"name":"Image_0",
			"uri":"Image_0.jpg"
		}
	],
	"accessors":[
		{
			"bufferView":0,
			"componentType":5126,
			"count":215153,
			"max":[
				1.7770609855651855,
				1.2665510177612305,
				1.4757740497589111
			],
			"min":[
				-1.2466070652008057,
				-1.7018359899520874,
				-2.1591920852661133
			],
			"type":"VEC3"
		},
		{
			"bufferView":1,
			"componentType":5126,
			"count":215153,
			"type":"VEC3"
		},
		{
			"bufferView":2,
			"componentType":5126,
			"count":215153,
			"type":"VEC2"
		},
		{
			"bufferView":3,
			"componentType":5125,
			"count":1257969,
			"type":"SCALAR"
		}
	],
	"bufferViews":[
		{
			"buffer":0,
			"byteLength":2581836,
			"byteOffset":0,
			"target":34962
		},
		{
			"buffer":0,
			"byteLength":2581836,
			"byteOffset":2581836,
			"target":34962
		},
		{
			"buffer":0,
			"byteLength":1721224,
			"byteOffset":5163672,
			"target":34962
		},
		{
			"buffer":0,
			"byteLength":5031876,
			"byteOffset":6884896,
			"target":34963
		}
	],
	"samplers":[
		{
			"magFilter":9729,
			"minFilter":9987
		}
	],
	"buffers":[
		{
			"byteLength":11916772,
			"uri":"buffalo.bin"
		}
	]
}
