{
    "asset": {
        "version": "2.0",
        "generator": "This 3D model is generated by KIRI Engine App"
    },
    "extensionsUsed": [
        "KHR_materials_pbrSpecularGlossiness",
        "FB_ngon_encoding"
    ],
    "accessors": [
        {
            "bufferView": 0,
            "byteOffset": 0,
            "componentType": 5126,
            "count": 8004,
            "type": "VEC3",
            "max": [
                5.247891902923584,
                2.9479100704193117,
                3.599828004837036
            ],
            "min": [
                -4.157279014587402,
                -2.9039909839630129,
                -3.677182912826538
            ]
        },
        {
            "bufferView": 1,
            "byteOffset": 0,
            "componentType": 5126,
            "count": 8004,
            "type": "VEC3",
            "max": [
                0.9999411106109619,
                0.9999947547912598,
                0.9985586404800415
            ],
            "min": [
                -0.9986616373062134,
                -0.9999580979347229,
                -0.9970449805259705
            ]
        },
        {
            "bufferView": 2,
            "byteOffset": 0,
            "componentType": 5126,
            "count": 8004,
            "type": "VEC2",
            "max": [
                0.9997860193252564,
                0.9999139904975891
            ],
            "min": [
                0.00013099999341648072,
                0.03336399793624878
            ]
        },
        {
            "bufferView": 3,
            "byteOffset": 0,
            "componentType": 5125,
            "count": 45000,
            "type": "SCALAR",
            "max": [
                8003
            ],
            "min": [
                0
            ]
        }
    ],
    "buffers": [
        {
            "byteLength": 436128,
            "uri": "3DModel_LowPoly.bin"
        }
    ],
    "bufferViews": [
        {
            "buffer": 0,
            "byteOffset": 0,
            "byteLength": 96048,
            "target": 34962
        },
        {
            "buffer": 0,
            "byteOffset": 96048,
            "byteLength": 96048,
            "target": 34962
        },
        {
            "buffer": 0,
            "byteOffset": 192096,
            "byteLength": 64032,
            "target": 34962
        },
        {
            "buffer": 0,
            "byteOffset": 256128,
            "byteLength": 180000,
            "target": 34963
        }
    ],
    "images": [
        {
            "uri": "data:image/jpeg;base64,"
        }
    ],
    "materials": [
        {
            "name": "Solid",
            "pbrMetallicRoughness": {
                "metallicFactor": 0.0
            },
            "extensions": {
                "KHR_materials_pbrSpecularGlossiness": {
                    "specularFactor": [
                        0.0,
                        0.0,
                        0.0
                    ],
                    "glossinessFactor": 0.0
                }
            }
        },
        {
            "name": "3DModel_LowPoly",
            "pbrMetallicRoughness": {
                "baseColorTexture": {
                    "index": 0
                },
                "metallicFactor": 0.0
            },
            "extensions": {
                "KHR_materials_pbrSpecularGlossiness": {
                    "specularFactor": [
                        0.0,
                        0.0,
                        0.0
                    ],
                    "glossinessFactor": 0.0,
                    "diffuseTexture": {
                        "index": 0
                    }
                }
            }
        }
    ],
    "meshes": [
        {
            "name": "defaultobject",
            "primitives": [
                {
                    "mode": 4,
                    "material": 1,
                    "indices": 3,
                    "attributes": {
                        "POSITION": 0,
                        "NORMAL": 1,
                        "TEXCOORD_0": 2
                    }
                }
            ]
        }
    ],
    "nodes": [
        {
            "name": "3DModel_LowPoly.obj",
            "children": [
                1
            ]
        },
        {
            "name": "defaultobject",
            "mesh": 0
        }
    ],
    "samplers": [
        {}
    ],
    "scenes": [
        {
            "nodes": [
                0
            ]
        }
    ],
    "textures": [
        {
            "source": 0,
            "sampler": 0
        }
    ],
    "scene": 0
}