{
    "asset": {
        "version": "2.0",
        "generator": "This 3D model is generated by KIRI Engine App"
    },
    "extensionsUsed": [
        "KHR_materials_pbrSpecularGlossiness",
        "FB_ngon_encoding"
    ],
    "accessors": [
        {
            "bufferView": 0,
            "byteOffset": 0,
            "componentType": 5126,
            "count": 8290,
            "type": "VEC3",
            "max": [
                1.0280439853668213,
                0.9366329908370972,
                0.6355440020561218
            ],
            "min": [
                -0.9320669770240784,
                -0.6172080039978027,
                -0.7091109752655029
            ]
        },
        {
            "bufferView": 1,
            "byteOffset": 0,
            "componentType": 5126,
            "count": 8290,
            "type": "VEC3",
            "max": [
                0.9999545216560364,
                0.999908983707428,
                0.9998932480812073
            ],
            "min": [
                -0.9989732503890991,
                -0.9997965097427368,
                -0.998379647731781
            ]
        },
        {
            "bufferView": 2,
            "byteOffset": 0,
            "componentType": 5126,
            "count": 8290,
            "type": "VEC2",
            "max": [
                0.9999759793281555,
                0.9998490214347839
            ],
            "min": [
                0.00015500000154133886,
                0.016946017742156984
            ]
        },
        {
            "bufferView": 3,
            "byteOffset": 0,
            "componentType": 5125,
            "count": 45000,
            "type": "SCALAR",
            "max": [
                8289
            ],
            "min": [
                0
            ]
        }
    ],
    "buffers": [
        {
            "byteLength": 445280,
            "uri": "3DModel_LowPoly.bin"
        }
    ],
    "bufferViews": [
        {
            "buffer": 0,
            "byteOffset": 0,
            "byteLength": 99480,
            "target": 34962
        },
        {
            "buffer": 0,
            "byteOffset": 99480,
            "byteLength": 99480,
            "target": 34962
        },
        {
            "buffer": 0,
            "byteOffset": 198960,
            "byteLength": 66320,
            "target": 34962
        },
        {
            "buffer": 0,
            "byteOffset": 265280,
            "byteLength": 180000,
            "target": 34963
        }
    ],
    "images": [
        {
            "uri": "data:image/jpeg;base64,"
        }
    ],
    "materials": [
        {
            "name": "Solid",
            "pbrMetallicRoughness": {
                "metallicFactor": 0.0
            },
            "extensions": {
                "KHR_materials_pbrSpecularGlossiness": {
                    "specularFactor": [
                        0.0,
                        0.0,
                        0.0
                    ],
                    "glossinessFactor": 0.0
                }
            }
        },
        {
            "name": "3DModel_LowPoly",
            "pbrMetallicRoughness": {
                "baseColorTexture": {
                    "index": 0
                },
                "metallicFactor": 0.0
            },
            "extensions": {
                "KHR_materials_pbrSpecularGlossiness": {
                    "specularFactor": [
                        0.0,
                        0.0,
                        0.0
                    ],
                    "glossinessFactor": 0.0,
                    "diffuseTexture": {
                        "index": 0
                    }
                }
            }
        }
    ],
    "meshes": [
        {
            "name": "defaultobject",
            "primitives": [
                {
                    "mode": 4,
                    "material": 1,
                    "indices": 3,
                    "attributes": {
                        "POSITION": 0,
                        "NORMAL": 1,
                        "TEXCOORD_0": 2
                    }
                }
            ]
        }
    ],
    "nodes": [
        {
            "name": "3DModel_LowPoly.obj",
            "children": [
                1
            ]
        },
        {
            "name": "defaultobject",
            "mesh": 0
        }
    ],
    "samplers": [
        {}
    ],
    "scenes": [
        {
            "nodes": [
                0
            ]
        }
    ],
    "textures": [
        {
            "source": 0,
            "sampler": 0
        }
    ],
    "scene": 0
}