{
    "asset": {
        "version": "2.0",
        "generator": "This 3D model is generated by KIRI Engine App"
    },
    "extensionsUsed": [
        "KHR_materials_pbrSpecularGlossiness",
        "FB_ngon_encoding"
    ],
    "accessors": [
        {
            "bufferView": 0,
            "byteOffset": 0,
            "componentType": 5126,
            "count": 101864,
            "type": "VEC3",
            "max": [
                1.027946949005127,
                0.9366329908370972,
                0.6355969905853272
            ],
            "min": [
                -0.932183027267456,
                -0.6165260076522827,
                -0.7088479995727539
            ]
        },
        {
            "bufferView": 1,
            "byteOffset": 0,
            "componentType": 5126,
            "count": 101864,
            "type": "VEC3",
            "max": [
                0.9999522566795349,
                0.9999914765357971,
                0.9999797344207764
            ],
            "min": [
                -0.9999167323112488,
                -0.999946653842926,
                -0.9998103380203247
            ]
        },
        {
            "bufferView": 2,
            "byteOffset": 0,
            "componentType": 5126,
            "count": 101864,
            "type": "VEC2",
            "max": [
                0.9673470258712769,
                0.9999319911003113
            ],
            "min": [
                0.00026199998683296144,
                0.00048100948333740234
            ]
        },
        {
            "bufferView": 3,
            "byteOffset": 0,
            "componentType": 5125,
            "count": 598686,
            "type": "SCALAR",
            "max": [
                101863
            ],
            "min": [
                0
            ]
        }
    ],
    "buffers": [
        {
            "byteLength": 5654392,
            "uri": "3DModel.bin"
        }
    ],
    "bufferViews": [
        {
            "buffer": 0,
            "byteOffset": 0,
            "byteLength": 1222368,
            "target": 34962
        },
        {
            "buffer": 0,
            "byteOffset": 1222368,
            "byteLength": 1222368,
            "target": 34962
        },
        {
            "buffer": 0,
            "byteOffset": 2444736,
            "byteLength": 814912,
            "target": 34962
        },
        {
            "buffer": 0,
            "byteOffset": 3259648,
            "byteLength": 2394744,
            "target": 34963
        }
    ],
    "images": [
        {
            "uri": "data:image/jpeg;base64,"
        }
    ],
    "materials": [
        {
            "name": "Solid",
            "pbrMetallicRoughness": {
                "metallicFactor": 0.0
            },
            "extensions": {
                "KHR_materials_pbrSpecularGlossiness": {
                    "specularFactor": [
                        0.0,
                        0.0,
                        0.0
                    ],
                    "glossinessFactor": 0.0
                }
            }
        },
        {
            "name": "3DModel",
            "pbrMetallicRoughness": {
                "baseColorTexture": {
                    "index": 0
                },
                "metallicFactor": 0.0
            },
            "extensions": {
                "KHR_materials_pbrSpecularGlossiness": {
                    "specularFactor": [
                        0.0,
                        0.0,
                        0.0
                    ],
                    "glossinessFactor": 0.0,
                    "diffuseTexture": {
                        "index": 0
                    }
                }
            }
        }
    ],
    "meshes": [
        {
            "name": "defaultobject",
            "primitives": [
                {
                    "mode": 4,
                    "material": 1,
                    "indices": 3,
                    "attributes": {
                        "POSITION": 0,
                        "NORMAL": 1,
                        "TEXCOORD_0": 2
                    }
                }
            ]
        }
    ],
    "nodes": [
        {
            "name": "3DModel.obj",
            "children": [
                1
            ]
        },
        {
            "name": "defaultobject",
            "mesh": 0
        }
    ],
    "samplers": [
        {}
    ],
    "scenes": [
        {
            "nodes": [
                0
            ]
        }
    ],
    "textures": [
        {
            "source": 0,
            "sampler": 0
        }
    ],
    "scene": 0
}