{
	"asset":{
		"generator":"Khronos glTF Blender I/O v4.3.47",
		"version":"2.0"
	},
	"extensionsUsed":[
		"KHR_materials_specular",
		"KHR_materials_ior"
	],
	"scene":0,
	"scenes":[
		{
			"name":"Scene",
			"nodes":[
				1
			]
		}
	],
	"nodes":[
		{
			"mesh":0,
			"name":"defaultobject",
			"scale":[
				1.529325246810913,
				1.5293251276016235,
				1.5293253660202026
			],
			"translation":[
				0.40605485439300537,
				-0.06581103801727295,
				-0.12463875114917755
			]
		},
		{
			"children":[
				0
			],
			"name":"3DModel.obj",
			"rotation":[
				0.43883004784584045,
				-0.6540388464927673,
				-0.4804913401603699,
				0.38573238253593445
			],
			"translation":[
				0,
				0.9721272587776184,
				0
			]
		}
	],
	"materials":[
		{
			"extensions":{
				"KHR_materials_specular":{
					"specularColorFactor":[
						0.0,
						0.0,
						0.0
					]
				},
				"KHR_materials_ior":{
					"ior":1000
				}
			},
			"name":"3DModel",
			"pbrMetallicRoughness":{
				"baseColorTexture":{
					"index":0
				},
				"metallicFactor":0
			}
		}
	],
	"meshes":[
		{
			"name":"defaultobject",
			"primitives":[
				{
					"attributes":{
						"POSITION":0,
						"NORMAL":1,
						"TEXCOORD_0":2
					},
					"indices":3,
					"material":0
				}
			]
		}
	],
	"textures":[
		{
			"sampler":0,
			"source":0
		}
	],
	"images":[
		{
			"mimeType":"image/jpeg",
			"name":"Image_0",
			"uri":"Image_0.jpg"
		}
	],
	"accessors":[
		{
			"bufferView":0,
			"componentType":5126,
			"count":101864,
			"max":[
				1.027946949005127,
				0.9366329908370972,
				0.6355969905853271
			],
			"min":[
				-0.932183027267456,
				-0.6165260076522827,
				-0.7088479995727539
			],
			"type":"VEC3"
		},
		{
			"bufferView":1,
			"componentType":5126,
			"count":101864,
			"type":"VEC3"
		},
		{
			"bufferView":2,
			"componentType":5126,
			"count":101864,
			"type":"VEC2"
		},
		{
			"bufferView":3,
			"componentType":5125,
			"count":598686,
			"type":"SCALAR"
		}
	],
	"bufferViews":[
		{
			"buffer":0,
			"byteLength":1222368,
			"byteOffset":0,
			"target":34962
		},
		{
			"buffer":0,
			"byteLength":1222368,
			"byteOffset":1222368,
			"target":34962
		},
		{
			"buffer":0,
			"byteLength":814912,
			"byteOffset":2444736,
			"target":34962
		},
		{
			"buffer":0,
			"byteLength":2394744,
			"byteOffset":3259648,
			"target":34963
		}
	],
	"samplers":[
		{
			"magFilter":9729,
			"minFilter":9987
		}
	],
	"buffers":[
		{
			"byteLength":5654392,
			"uri":"proststein.bin"
		}
	]
}
