{
    "asset": {
        "version": "2.0",
        "generator": "This 3D model is generated by KIRI Engine App"
    },
    "extensionsUsed": [
        "KHR_materials_pbrSpecularGlossiness",
        "FB_ngon_encoding"
    ],
    "accessors": [
        {
            "bufferView": 0,
            "byteOffset": 0,
            "componentType": 5126,
            "count": 9223,
            "type": "VEC3",
            "max": [
                3.797165870666504,
                1.678279995918274,
                2.3533449172973635
            ],
            "min": [
                -4.611091136932373,
                -1.7339069843292237,
                -2.5133309364318849
            ]
        },
        {
            "bufferView": 1,
            "byteOffset": 0,
            "componentType": 5126,
            "count": 9223,
            "type": "VEC3",
            "max": [
                0.9984999895095825,
                0.9997266530990601,
                0.9993667602539063
            ],
            "min": [
                -0.9998579025268555,
                -0.9997785091400147,
                -0.9999314546585083
            ]
        },
        {
            "bufferView": 2,
            "byteOffset": 0,
            "componentType": 5126,
            "count": 9223,
            "type": "VEC2",
            "max": [
                0.9949640035629273,
                0.9999030232429504
            ],
            "min": [
                0.0004579999949783087,
                0.0001310110092163086
            ]
        },
        {
            "bufferView": 3,
            "byteOffset": 0,
            "componentType": 5125,
            "count": 45000,
            "type": "SCALAR",
            "max": [
                9222
            ],
            "min": [
                0
            ]
        }
    ],
    "buffers": [
        {
            "byteLength": 475136,
            "uri": "3DModel_LowPoly.bin"
        }
    ],
    "bufferViews": [
        {
            "buffer": 0,
            "byteOffset": 0,
            "byteLength": 110676,
            "target": 34962
        },
        {
            "buffer": 0,
            "byteOffset": 110676,
            "byteLength": 110676,
            "target": 34962
        },
        {
            "buffer": 0,
            "byteOffset": 221352,
            "byteLength": 73784,
            "target": 34962
        },
        {
            "buffer": 0,
            "byteOffset": 295136,
            "byteLength": 180000,
            "target": 34963
        }
    ],
    "images": [
        {
            "uri": "data:image/jpeg;base64,"
        }
    ],
    "materials": [
        {
            "name": "Solid",
            "pbrMetallicRoughness": {
                "metallicFactor": 0.0
            },
            "extensions": {
                "KHR_materials_pbrSpecularGlossiness": {
                    "specularFactor": [
                        0.0,
                        0.0,
                        0.0
                    ],
                    "glossinessFactor": 0.0
                }
            }
        },
        {
            "name": "3DModel_LowPoly",
            "pbrMetallicRoughness": {
                "baseColorTexture": {
                    "index": 0
                },
                "metallicFactor": 0.0
            },
            "extensions": {
                "KHR_materials_pbrSpecularGlossiness": {
                    "specularFactor": [
                        0.0,
                        0.0,
                        0.0
                    ],
                    "glossinessFactor": 0.0,
                    "diffuseTexture": {
                        "index": 0
                    }
                }
            }
        }
    ],
    "meshes": [
        {
            "name": "defaultobject",
            "primitives": [
                {
                    "mode": 4,
                    "material": 1,
                    "indices": 3,
                    "attributes": {
                        "POSITION": 0,
                        "NORMAL": 1,
                        "TEXCOORD_0": 2
                    }
                }
            ]
        }
    ],
    "nodes": [
        {
            "name": "3DModel_LowPoly.obj",
            "children": [
                1
            ]
        },
        {
            "name": "defaultobject",
            "mesh": 0
        }
    ],
    "samplers": [
        {}
    ],
    "scenes": [
        {
            "nodes": [
                0
            ]
        }
    ],
    "textures": [
        {
            "source": 0,
            "sampler": 0
        }
    ],
    "scene": 0
}