{
	"asset":{
		"generator":"Khronos glTF Blender I/O v4.3.47",
		"version":"2.0"
	},
	"extensionsUsed":[
		"KHR_materials_specular",
		"KHR_materials_ior"
	],
	"scene":0,
	"scenes":[
		{
			"name":"Scene",
			"nodes":[
				1
			]
		}
	],
	"nodes":[
		{
			"mesh":0,
			"name":"defaultobject"
		},
		{
			"children":[
				0
			],
			"name":"3DModel.obj",
			"rotation":[
				-0.23857833445072174,
				0.053428202867507935,
				-0.720613420009613,
				0.6488005518913269
			],
			"scale":[
				0.9819744229316711,
				0.9819743633270264,
				0.9819744229316711
			],
			"translation":[
				0,
				2.7069642543792725,
				0
			]
		}
	],
	"materials":[
		{
			"extensions":{
				"KHR_materials_specular":{
					"specularColorFactor":[
						0.0,
						0.0,
						0.0
					]
				},
				"KHR_materials_ior":{
					"ior":1000
				}
			},
			"name":"3DModel",
			"pbrMetallicRoughness":{
				"baseColorTexture":{
					"index":0
				},
				"metallicFactor":0
			}
		}
	],
	"meshes":[
		{
			"name":"defaultobject",
			"primitives":[
				{
					"attributes":{
						"POSITION":0,
						"NORMAL":1,
						"TEXCOORD_0":2
					},
					"indices":3,
					"material":0
				}
			]
		}
	],
	"textures":[
		{
			"sampler":0,
			"source":0
		}
	],
	"images":[
		{
			"mimeType":"image/jpeg",
			"name":"Image_0",
			"uri":"Image_0.jpg"
		}
	],
	"accessors":[
		{
			"bufferView":0,
			"componentType":5126,
			"count":107630,
			"max":[
				3.7971670627593994,
				1.678279995918274,
				2.3560359477996826
			],
			"min":[
				-4.611091136932373,
				-1.7339069843292236,
				-2.5133309364318848
			],
			"type":"VEC3"
		},
		{
			"bufferView":1,
			"componentType":5126,
			"count":107630,
			"type":"VEC3"
		},
		{
			"bufferView":2,
			"componentType":5126,
			"count":107630,
			"type":"VEC2"
		},
		{
			"bufferView":3,
			"componentType":5125,
			"count":612075,
			"type":"SCALAR"
		}
	],
	"bufferViews":[
		{
			"buffer":0,
			"byteLength":1291560,
			"byteOffset":0,
			"target":34962
		},
		{
			"buffer":0,
			"byteLength":1291560,
			"byteOffset":1291560,
			"target":34962
		},
		{
			"buffer":0,
			"byteLength":861040,
			"byteOffset":2583120,
			"target":34962
		},
		{
			"buffer":0,
			"byteLength":2448300,
			"byteOffset":3444160,
			"target":34963
		}
	],
	"samplers":[
		{
			"magFilter":9729,
			"minFilter":9987
		}
	],
	"buffers":[
		{
			"byteLength":5892460,
			"uri":"santa.bin"
		}
	]
}
