{
	"asset":{
		"generator":"Khronos glTF Blender I/O v4.3.47",
		"version":"2.0"
	},
	"extensionsUsed":[
		"KHR_materials_specular",
		"KHR_materials_ior"
	],
	"scene":0,
	"scenes":[
		{
			"name":"Scene",
			"nodes":[
				1
			]
		}
	],
	"nodes":[
		{
			"mesh":0,
			"name":"3DModel"
		},
		{
			"children":[
				0
			],
			"name":"3DModel.obj",
			"rotation":[
				-0.44114094972610474,
				0.233753502368927,
				-0.4056887626647949,
				0.765617847442627
			],
			"translation":[
				0,
				1.5613349676132202,
				0
			]
		}
	],
	"materials":[
		{
			"extensions":{
				"KHR_materials_specular":{
					"specularColorFactor":[
						0.0,
						0.0,
						0.0
					]
				},
				"KHR_materials_ior":{
					"ior":1000
				}
			},
			"name":"3DModel",
			"pbrMetallicRoughness":{
				"baseColorFactor":[
					0.6000000238418579,
					0.6000000238418579,
					0.6000000238418579,
					1
				],
				"baseColorTexture":{
					"index":0
				},
				"metallicFactor":0
			}
		}
	],
	"meshes":[
		{
			"name":"3DModel",
			"primitives":[
				{
					"attributes":{
						"POSITION":0,
						"NORMAL":1,
						"TEXCOORD_0":2
					},
					"indices":3,
					"material":0
				}
			]
		}
	],
	"textures":[
		{
			"sampler":0,
			"source":0
		}
	],
	"images":[
		{
			"mimeType":"image/jpeg",
			"name":"Image_0",
			"uri":"Image_0.jpg"
		}
	],
	"accessors":[
		{
			"bufferView":0,
			"componentType":5126,
			"count":1748824,
			"max":[
				3.838231086730957,
				2.1898751258850098,
				2.268882989883423
			],
			"min":[
				-3.006056070327759,
				-3.744565010070801,
				-3.690011978149414
			],
			"type":"VEC3"
		},
		{
			"bufferView":1,
			"componentType":5126,
			"count":1748824,
			"type":"VEC3"
		},
		{
			"bufferView":2,
			"componentType":5126,
			"count":1748824,
			"type":"VEC2"
		},
		{
			"bufferView":3,
			"componentType":5125,
			"count":3780108,
			"type":"SCALAR"
		}
	],
	"bufferViews":[
		{
			"buffer":0,
			"byteLength":20985888,
			"byteOffset":0,
			"target":34962
		},
		{
			"buffer":0,
			"byteLength":20985888,
			"byteOffset":20985888,
			"target":34962
		},
		{
			"buffer":0,
			"byteLength":13990592,
			"byteOffset":41971776,
			"target":34962
		},
		{
			"buffer":0,
			"byteLength":15120432,
			"byteOffset":55962368,
			"target":34963
		}
	],
	"samplers":[
		{
			"magFilter":9729,
			"minFilter":9987
		}
	],
	"buffers":[
		{
			"byteLength":71082800,
			"uri":"lancasterHS.bin"
		}
	]
}
